<svg enable-background="new 0 0 512 512" height="300" viewBox="0 0 512 512" width="300" xmlns="http://www.w3.org/2000/svg" version="1.1" xmlns:xlink="http://www.w3.org/1999/xlink" xmlns:svgjs="http://svgjs.dev/svgjs"><g width="100%" height="100%" transform="matrix(1,0,0,1,0,0)"><g id="_x32_37_x2C__Location_x2C__Map_x2C__Pin"><g><g><g><path d="m253.5 441c-.963 0-1.924-.277-2.759-.83-.425-.28-43.001-28.609-85.167-71.15-24.846-25.065-44.734-50.123-59.114-74.478-18.16-30.757-27.567-60.523-27.96-88.472-.646-45.996 16.959-89.542 49.571-122.615 33.355-33.826 77.9-52.455 125.429-52.455 50.367 0 98.772 21.089 132.804 57.861 30.519 32.976 45.499 74.714 42.181 117.525-.523 6.761-1.454 13.675-2.765 20.55-.518 2.712-3.137 4.49-5.848 3.976-2.713-.517-4.492-3.135-3.976-5.848 1.242-6.513 2.122-13.057 2.618-19.451 3.101-40.001-10.945-79.053-39.55-109.96-32.145-34.733-77.875-54.653-125.464-54.653-44.832 0-86.848 17.571-118.309 49.477-30.718 31.152-47.3 72.155-46.692 115.453.838 59.633 46.238 117.775 84.177 156.051 35.451 35.765 71.097 61.245 80.932 68.043 10.92-7.003 53.055-35.231 91.782-77.405 1.867-2.033 5.031-2.169 7.064-.301 2.034 1.867 2.169 5.03.301 7.064-45.729 49.797-96.161 80.59-96.665 80.896-.798.482-1.694.722-2.59.722z" fill="#f53855" fill-opacity="1" data-original-color="#000000ff" stroke="none" stroke-opacity="1"/></g><g><path d="m253.5 301c-57.897 0-105-47.103-105-105s47.103-105 105-105c57.896 0 105 47.103 105 105 0 10.737-1.619 21.335-4.812 31.498-.827 2.635-3.636 4.098-6.268 3.272-2.635-.827-4.1-3.634-3.272-6.268 2.888-9.193 4.352-18.782 4.352-28.502 0-52.383-42.617-95-95-95-52.384 0-95 42.617-95 95s42.616 95 95 95c25.051 0 48.692-9.671 66.567-27.231 1.969-1.938 5.135-1.909 7.07.063 1.936 1.97 1.907 5.136-.063 7.07-19.756 19.409-45.886 30.098-73.574 30.098z" fill="#f53855" fill-opacity="1" data-original-color="#000000ff" stroke="none" stroke-opacity="1"/></g><g><path d="m368.5 481c-1.895 0-3.625-1.07-4.473-2.764l-15-30c-.347-.694-.527-1.46-.527-2.236v-90c0-2.762 2.238-5 5-5h30c2.761 0 5 2.238 5 5v90c0 .776-.181 1.542-.528 2.236l-15 30c-.847 1.694-2.578 2.764-4.472 2.764zm-10-36.181 10 20 10-20v-83.819h-20z" fill="#f53855" fill-opacity="1" data-original-color="#000000ff" stroke="none" stroke-opacity="1"/></g><g><path d="m433.5 361h-130c-2.762 0-5-2.238-5-5v-25c0-2.762 2.238-5 5-5 16.542 0 30-13.458 30-30s-13.458-30-30-30c-2.762 0-5-2.238-5-5v-35c0-2.761 2.238-5 5-5h130c2.761 0 5 2.239 5 5v35c0 2.762-2.239 5-5 5-16.542 0-30 13.458-30 30s13.458 30 30 30c2.761 0 5 2.238 5 5v25c0 2.762-2.239 5-5 5zm-125-10h120v-15.311c-19.704-2.469-35-19.327-35-39.689s15.296-37.221 35-39.689v-25.311h-120v25.311c19.704 2.469 35 19.327 35 39.689s-15.296 37.221-35 39.689z" fill="#f53855" fill-opacity="1" data-original-color="#000000ff" stroke="none" stroke-opacity="1"/></g><g><path d="m443.5 96c-13.785 0-25-11.215-25-25s11.215-25 25-25 25 11.215 25 25-11.215 25-25 25zm0-40c-8.271 0-15 6.729-15 15s6.729 15 15 15 15-6.729 15-15-6.729-15-15-15z" fill="#f53855" fill-opacity="1" data-original-color="#000000ff" stroke="none" stroke-opacity="1"/></g><g><path d="m98.5 441c-19.299 0-35-15.701-35-35s15.701-35 35-35 35 15.701 35 35-15.701 35-35 35zm0-60c-13.785 0-25 11.215-25 25s11.215 25 25 25 25-11.215 25-25-11.215-25-25-25z" fill="#f53855" fill-opacity="1" data-original-color="#000000ff" stroke="none" stroke-opacity="1"/></g><circle cx="471" cy="253.5" r="7.5" fill="#f53855" fill-opacity="1" data-original-color="#000000ff" stroke="none" stroke-opacity="1"/><circle cx="86" cy="48.5" r="7.5" fill="#f53855" fill-opacity="1" data-original-color="#000000ff" stroke="none" stroke-opacity="1"/><circle cx="41" cy="208.5" r="7.5" fill="#f53855" fill-opacity="1" data-original-color="#000000ff" stroke="none" stroke-opacity="1"/><circle cx="161" cy="438.5" r="7.5" fill="#f53855" fill-opacity="1" data-original-color="#000000ff" stroke="none" stroke-opacity="1"/><circle cx="321" cy="433.5" r="7.5" fill="#f53855" fill-opacity="1" data-original-color="#000000ff" stroke="none" stroke-opacity="1"/></g></g></g></g></svg>