<svg id="Line" height="300" viewBox="0 0 64 64" width="300" xmlns="http://www.w3.org/2000/svg" version="1.1" xmlns:xlink="http://www.w3.org/1999/xlink" xmlns:svgjs="http://svgjs.dev/svgjs"><g width="100%" height="100%" transform="matrix(1,0,0,1,0,0)"><g><path d="m57.552 23.973-8.459-10.463c-.654-3.392-3.096-6.148-6.303-7.26-3.004-2.516-6.728-3.852-10.79-3.852-4.28 0-8.164 1.473-11.25 4.25-2.447 1.163-4.329 3.321-5.111 5.955l-9.192 11.37c-.144.178-.222.4-.222.629v25.852c0 6.147 5.001 11.148 11.148 11.148h29.282c6.131 0 11.12-5.001 11.12-11.148v-25.852c0-.229-.079-.451-.223-.629zm-2.063.628-6.218 7.69v-15.379zm-17.235-18.886h-12.458c1.901-.86 3.989-1.317 6.204-1.317 2.262 0 4.353.445 6.254 1.317zm-13.398 2h14.797c4.2 0 7.618 3.417 7.618 7.617v19.433l-3.421 4.231c-.772.954-1.49 1.699-2.259 2.355-2.767-1.929-6.006-2.953-9.591-2.953-3.58 0-6.815 1.021-9.58 2.944-.742-.63-1.448-1.331-2.087-2.12l-3.094-3.827v-20.063c0-4.2 3.417-7.617 7.617-7.617zm-16.345 16.886 6.728-8.321v16.642zm-.286 2.828 10.554 13.052c.631.779 1.328 1.474 2.052 2.119-.722.644-1.416 1.335-2.052 2.122l-8.89 10.976c-1.044-1.487-1.664-3.293-1.664-5.244zm9.148 32.173c-2.364 0-4.515-.909-6.14-2.386l9.1-11.235c2.959-3.652 6.994-5.582 11.667-5.582s8.708 1.93 11.667 5.582l9.104 11.24c-1.62 1.474-3.761 2.381-6.116 2.381zm36.741-3.901-8.893-10.979c-.632-.78-1.321-1.468-2.036-2.107.753-.675 1.476-1.441 2.22-2.36l10.37-12.825v23.025c0 1.951-.618 3.759-1.661 5.246z" fill="#f53855" fill-opacity="1" data-original-color="#000000ff" stroke="none" stroke-opacity="1"/><path d="m22.844 27.798h.84c.125.37.273.726.442 1.066l-.582.582c-.453.43-.707 1.014-.716 1.647-.008.638.246 1.262.697 1.713l.795.794c.898.898 2.442.899 3.341 0l.601-.6c.34.168.696.316 1.065.442v.84c0 1.302 1.059 2.361 2.36 2.361h1.134c1.279 0 2.36-1.081 2.36-2.361v-.84c.37-.126.726-.274 1.065-.442l.582.582c.862.91 2.521.879 3.32.031l.854-.825c.886-.936.877-2.426-.019-3.322l-.601-.601c.168-.34.316-.696.442-1.066h.84c1.28 0 2.361-1.081 2.361-2.36v-1.134c0-1.28-1.081-2.361-2.361-2.361h-.84c-.126-.37-.273-.726-.442-1.065l.601-.601c.896-.896.905-2.387-.013-3.354l-.791-.761c-.862-.911-2.508-.892-3.333-.02l-.6.6c-.34-.168-.696-.316-1.066-.442v-.84c0-1.302-1.059-2.361-2.36-2.361h-1.134c-1.324 0-2.36 1.037-2.36 2.361v.84c-.37.126-.726.273-1.066.442l-.6-.6c-.899-.899-2.443-.898-3.342 0l-.794.794c-.451.451-.705 1.076-.697 1.713.009.633.263 1.218.697 1.628l.601.601c-.168.34-.316.696-.442 1.065h-.84c-1.302 0-2.361 1.059-2.361 2.361v1.134c.001 1.3 1.06 2.359 2.362 2.359zm-.361-3.494c0-.173.138-.361.361-.361h1.587c.459 0 .859-.313.97-.758.18-.719.453-1.375.813-1.952.247-.395.188-.908-.141-1.237l-1.153-1.153c-.078-.074-.091-.171-.092-.222-.001-.06.013-.174.111-.272l.794-.794c.184-.184.328-.185.513 0l1.134 1.134c.329.33.843.388 1.237.141.576-.36 1.232-.633 1.951-.813.445-.111.758-.511.758-.97v-1.587c0-.212.148-.361.36-.361h1.134c.173 0 .36.138.36.361v1.587c0 .459.313.859.758.97.719.18 1.375.453 1.951.813.395.247.908.188 1.237-.141l1.153-1.153c.151-.16.264-.192.479.032l.791.762c.138.146.147.404.019.533l-1.134 1.134c-.33.329-.388.842-.141 1.237.36.576.633 1.232.813 1.951.111.445.511.758.97.758h1.587c.186 0 .361.175.361.361v1.134c0 .185-.175.36-.361.36h-1.587c-.459 0-.859.313-.97.758-.18.719-.453 1.375-.813 1.952-.247.395-.188.908.141 1.237l1.134 1.134c.128.128.119.387.012.501l-.854.825c-.151.16-.277.179-.466-.019l-1.134-1.134c-.328-.328-.84-.388-1.237-.141-.576.36-1.233.634-1.952.813-.445.111-.757.511-.757.97v1.587c0 .186-.175.361-.36.361h-1.134c-.223 0-.36-.188-.36-.361v-1.587c0-.459-.312-.859-.757-.97-.719-.18-1.376-.454-1.952-.813-.164-.102-.347-.152-.529-.152-.258 0-.515.1-.708.293l-1.134 1.134c-.184.185-.33.184-.513 0l-.794-.794c-.098-.099-.112-.213-.111-.272 0-.051.014-.148.111-.241l1.134-1.134c.329-.329.388-.842.141-1.236-.36-.577-.634-1.234-.813-1.953-.111-.445-.511-.758-.97-.758h-1.587c-.223 0-.361-.187-.361-.36z" fill="#f53855" fill-opacity="1" data-original-color="#000000ff" stroke="none" stroke-opacity="1"/><path d="m32.255 28.847c2.193 0 3.977-1.784 3.977-3.976 0-2.193-1.784-3.977-3.977-3.977-2.208 0-4.004 1.784-4.004 3.977-.001 2.192 1.796 3.976 4.004 3.976zm0-5.952c1.09 0 1.977.887 1.977 1.977s-.887 1.976-1.977 1.976c-1.105 0-2.004-.886-2.004-1.976s.899-1.977 2.004-1.977z" fill="#f53855" fill-opacity="1" data-original-color="#000000ff" stroke="none" stroke-opacity="1"/></g></g></svg>