<svg version="1.1" id="svg3276" xml:space="preserve" width="300" height="300" viewBox="0 0 682.66669 682.66669" xmlns="http://www.w3.org/2000/svg" xmlns:svg="http://www.w3.org/2000/svg" xmlns:xlink="http://www.w3.org/1999/xlink" xmlns:svgjs="http://svgjs.dev/svgjs"><g width="100%" height="100%" transform="matrix(1,0,0,1,0,0)"><defs id="defs3280"><clipPath clipPathUnits="userSpaceOnUse" id="clipPath3290"><path d="M 0,512 H 512 V 0 H 0 Z" id="path3288" fill="#f53855" fill-opacity="1" data-original-color="#000000ff" stroke="none" stroke-opacity="1"/></clipPath></defs><g id="g3282" transform="matrix(1.3333333,0,0,-1.3333333,0,682.66667)"><g id="g3284"><g id="g3286" clip-path="url(#clipPath3290)"><g id="g3292" transform="translate(163.7529,40.6333)"><path d="M 0,0 V 66.143 L 44.719,1.387 c 0.829,-1.198 1.717,-0.611 1.717,0.846 l -0.62,64.034" style="stroke-linecap: round; stroke-linejoin: round; stroke-miterlimit: 10; stroke-dasharray: none;" id="path3294" fill="none" fill-opacity="1" stroke="#f53855" stroke-opacity="1" data-original-stroke-color="#000000ff" stroke-width="15" data-original-stroke-width="15"/></g><g id="g3296" transform="translate(342.7216,106.8999)"><path d="m 0,0 12.911,-65.271 c 0.475,-1.337 2.369,-1.324 2.826,0.019 l 20.159,65.13" style="stroke-linecap: round; stroke-linejoin: round; stroke-miterlimit: 10; stroke-dasharray: none;" id="path3298" fill="none" fill-opacity="1" stroke="#f53855" stroke-opacity="1" data-original-stroke-color="#000000ff" stroke-width="15" data-original-stroke-width="15"/></g><g id="g3300" transform="translate(378.6176,106.8999)"><path d="m 0,0 20.108,-65.271 c 0.475,-1.337 2.369,-1.324 2.826,0.019 l 12.962,65.13" style="stroke-linecap: round; stroke-linejoin: round; stroke-miterlimit: 10; stroke-dasharray: none;" id="path3302" fill="none" fill-opacity="1" stroke="#f53855" stroke-opacity="1" data-original-stroke-color="#000000ff" stroke-width="15" data-original-stroke-width="15"/></g><g id="g3304" transform="translate(309.5883,73.7666)"><path d="m 0,0 c 0,-18.299 -14.834,-33.133 -33.133,-33.133 -18.299,0 -33.134,14.834 -33.134,33.133 0,18.299 14.835,33.133 33.134,33.133 C -14.834,33.133 0,18.299 0,0 Z" style="stroke-linecap: round; stroke-linejoin: round; stroke-miterlimit: 10; stroke-dasharray: none;" id="path3306" fill="none" fill-opacity="1" stroke="#f53855" stroke-opacity="1" data-original-stroke-color="#000000ff" stroke-width="15" data-original-stroke-width="15"/></g><g id="g3308" transform="translate(129.9341,140.0332)"><path d="m 0,0 c -3.801,0 -7.114,-2.587 -8.036,-6.274 l -28.992,-115.967 c -1.306,-5.228 2.648,-10.292 8.036,-10.292 h 366.279 c 3.801,0 7.114,2.587 8.036,6.274 l 28.991,115.967 C 375.622,-5.064 371.667,0 366.278,0" style="stroke-linecap: round; stroke-linejoin: round; stroke-miterlimit: 10; stroke-dasharray: none;" id="path3310" fill="none" fill-opacity="1" stroke="#f53855" stroke-opacity="1" data-original-stroke-color="#000000ff" stroke-width="15" data-original-stroke-width="15"/></g><g id="g3312" transform="translate(426.7207,140.0332)"><path d="m 0,0 h -296.787 c -3.8,0 -7.114,-2.587 -8.036,-6.274 l -28.991,-115.967 c -1.307,-5.228 2.647,-10.292 8.036,-10.292 H 40.5 c 3.801,0 7.114,2.587 8.036,6.274 L 77.528,-10.292 C 78.835,-5.064 74.881,0 69.492,0 H 35" style="stroke-linecap: round; stroke-linejoin: round; stroke-miterlimit: 10; stroke-dasharray: none;" id="path3314" fill="none" fill-opacity="1" stroke="#f53855" stroke-opacity="1" data-original-stroke-color="#000000ff" stroke-width="15" data-original-stroke-width="15"/></g><g id="g3316" transform="translate(148.4575,233.7749)"><path d="m 0,0 c -5.288,3.572 -11.663,5.658 -18.525,5.658 -18.299,0 -33.133,-14.834 -33.133,-33.133 0,-18.299 14.834,-33.133 33.133,-33.133 7.432,0 13.545,2.446 18.185,6.579 0.96,0.855 1.856,1.782 2.689,2.774" style="stroke-linecap: round; stroke-linejoin: round; stroke-miterlimit: 10; stroke-dasharray: none;" id="path3318" fill="none" fill-opacity="1" stroke="#f53855" stroke-opacity="1" data-original-stroke-color="#000000ff" stroke-width="15" data-original-stroke-width="15"/></g><g id="g3320" transform="translate(183.9394,173.1665)"><path d="m 0,0 24.883,65.333 c 0.509,1.244 2.268,1.246 2.779,0.003 L 52.319,0" style="stroke-linecap: round; stroke-linejoin: round; stroke-miterlimit: 10; stroke-dasharray: none;" id="path3322" fill="none" fill-opacity="1" stroke="#f53855" stroke-opacity="1" data-original-stroke-color="#000000ff" stroke-width="15" data-original-stroke-width="15"/></g><g id="g3324" transform="translate(191.6997,189.438)"><path d="M 0,0 H 36.924" style="stroke-linecap: round; stroke-linejoin: round; stroke-miterlimit: 10; stroke-dasharray: none;" id="path3326" fill="none" fill-opacity="1" stroke="#f53855" stroke-opacity="1" data-original-stroke-color="#000000ff" stroke-width="15" data-original-stroke-width="15"/></g><g id="g3328" transform="translate(269.3921,239.4331)"><path d="m 0,0 v -66.21 c 0.732,-0.126 23.204,0 23.204,0" style="stroke-linecap: round; stroke-linejoin: round; stroke-miterlimit: 10; stroke-dasharray: none;" id="path3330" fill="none" fill-opacity="1" stroke="#f53855" stroke-opacity="1" data-original-stroke-color="#000000ff" stroke-width="15" data-original-stroke-width="15"/></g><g id="g3332" transform="translate(325.7295,239.4331)"><path d="m 0,0 v -66.21 c 0.732,-0.126 23.205,0 23.205,0" style="stroke-linecap: round; stroke-linejoin: round; stroke-miterlimit: 10; stroke-dasharray: none;" id="path3334" fill="none" fill-opacity="1" stroke="#f53855" stroke-opacity="1" data-original-stroke-color="#000000ff" stroke-width="15" data-original-stroke-width="15"/></g><g id="g3336" transform="translate(82.9834,140.0332)"><path d="m 0,0 h 299.083 c 3.8,0 7.114,2.587 8.036,6.274 l 28.991,115.967 c 1.307,5.228 -2.647,10.293 -8.036,10.293 H -38.205 c -3.8,0 -7.113,-2.587 -8.035,-6.275 L -75.232,10.292 C -76.539,5.064 -72.585,0 -67.196,0 h 32.346" style="stroke-linecap: round; stroke-linejoin: round; stroke-miterlimit: 10; stroke-dasharray: none;" id="path3338" fill="none" fill-opacity="1" stroke="#f53855" stroke-opacity="1" data-original-stroke-color="#000000ff" stroke-width="15" data-original-stroke-width="15"/></g><g id="g3340" transform="translate(315.2827,365.8149)"><path d="m 0,0 -11.715,11.714 c -6.469,6.47 -16.959,6.47 -23.428,0 -6.47,-6.469 -16.96,-6.469 -23.429,0 l -11.715,11.715 c -6.469,6.469 -6.469,16.959 0,23.429 6.47,6.47 6.47,16.959 0,23.429 l -11.714,11.714 c -6.47,6.47 -16.959,6.47 -23.429,0 l -11.714,-11.714 c -12.939,-12.94 -12.939,-33.919 0,-46.858 l 58.572,-58.572 c 12.939,-12.94 33.918,-12.94 46.858,0 L 0,-23.429 C 6.47,-16.959 6.47,-6.47 0,0 Z" style="stroke-linecap: round; stroke-linejoin: round; stroke-miterlimit: 10; stroke-dasharray: none;" id="path3342" fill="none" fill-opacity="1" stroke="#f53855" stroke-opacity="1" data-original-stroke-color="#000000ff" stroke-width="15" data-original-stroke-width="15"/></g><g id="g3344" transform="translate(371.9668,388.5332)"><path d="m 0,0 c 0,-64.046 -51.92,-115.966 -115.967,-115.966 -64.047,0 -115.967,51.92 -115.967,115.966 0,64.047 51.92,115.967 115.967,115.967 C -51.92,115.967 0,64.047 0,0 Z" style="stroke-linecap: round; stroke-linejoin: round; stroke-miterlimit: 10; stroke-dasharray: none;" id="path3346" fill="none" fill-opacity="1" stroke="#f53855" stroke-opacity="1" data-original-stroke-color="#000000ff" stroke-width="15" data-original-stroke-width="15"/></g></g></g></g></g></svg>