<svg id="Layer_1" enable-background="new 0 0 512 512" height="300" viewBox="0 0 512 512" width="300" xmlns="http://www.w3.org/2000/svg" xmlns:xlink="http://www.w3.org/1999/xlink" version="1.1" xmlns:svgjs="http://svgjs.dev/svgjs"><g width="100%" height="100%" transform="matrix(1,0,0,1,0,0)"><linearGradient id="SVGID_1_" gradientUnits="userSpaceOnUse" x1="256" x2="256" y1=".001" y2="511.999"><stop offset="0" stop-color="#01f1fe"/><stop offset="1" stop-color="#4fadfe"/></linearGradient><path d="m404.802 282.793c-13.213 71.102-75.364 122.707-147.782 122.707-82.891 0-150.327-67.437-150.327-150.328 0-6.628 5.373-12 12-12 6.628 0 12 5.372 12 12 0 69.657 56.67 126.328 126.327 126.328 60.857 0 113.086-43.356 124.187-103.092 1.211-6.516 7.478-10.813 13.99-9.605 6.515 1.211 10.816 7.474 9.605 13.99zm-126.245-152.117c7.047 1.211 14.03 3.037 20.757 5.428 1.329.472 2.685.695 4.019.695 4.936 0 9.56-3.068 11.308-7.984 2.219-6.245-1.044-13.106-7.289-15.326-8.015-2.848-16.335-5.023-24.729-6.467-6.524-1.117-12.735 3.263-13.859 9.795-1.124 6.531 3.26 12.736 9.793 13.859zm120.043 73.875c-2.231-6.24-9.099-9.486-15.341-7.257-6.24 2.232-9.489 9.101-7.257 15.341 2.415 6.751 4.259 13.754 5.481 20.813 1.011 5.837 6.081 9.954 11.81 9.954.681 0 1.369-.058 2.063-.178 6.53-1.131 10.907-7.342 9.776-13.872-1.457-8.412-3.654-16.756-6.532-24.801zm-60.316-46.09c5.504 4.63 10.645 9.76 15.28 15.248 2.374 2.81 5.762 4.256 9.173 4.256 2.735 0 5.485-.93 7.738-2.833 5.063-4.276 5.699-11.848 1.423-16.911-5.511-6.523-11.622-12.622-18.163-18.125-5.073-4.268-12.643-3.613-16.908 1.457-4.266 5.071-3.614 12.641 1.457 16.908zm-164.476 16.511 53.743-64.176c3.241-3.868 8.555-5.299 13.299-3.574 4.743 1.724 7.901 6.231 7.901 11.278v52.176h1.39c6.628 0 12 5.372 12 12s-5.372 12-12 12h-1.39v12.91c0 6.628-5.372 12-12 12-6.627 0-12-5.372-12-12v-12.91h-41.743c-4.661 0-8.901-2.699-10.873-6.923-1.973-4.225-1.321-9.208 1.673-12.781zm34.901-4.296h16.042v-19.155zm66.51 182.814c2.005 1.283 4.246 1.896 6.461 1.896 3.954-.001 7.826-1.953 10.117-5.529l57.062-89.089c2.365-3.694 2.527-8.384.422-12.231-2.104-3.849-6.142-6.241-10.527-6.241h-52.117c-6.628 0-12 5.373-12 12 0 6.628 5.372 12 12 12h30.181l-45.23 70.616c-3.576 5.581-1.949 13.003 3.631 16.578zm-103.353-50.368c-4.687 4.687-4.687 12.284 0 16.971 2.343 2.343 5.414 3.515 8.485 3.515s6.143-1.172 8.485-3.515l135.127-135.127c4.687-4.687 4.687-12.284 0-16.971-4.686-4.686-12.285-4.686-16.971 0zm-30.084-137.142c-11.645 9.087-26.137 20.396-33.886 36.367-1.805 3.719-1.568 8.104.626 11.607 2.194 3.504 6.036 5.631 10.17 5.631h55.77c6.627 0 12-5.373 12-12s-5.373-12-12-12h-30.954c4.209-3.794 8.745-7.334 13.039-10.685 11.28-8.803 21.936-17.118 25.053-28.532 4.564-16.713.316-31.731-11.655-41.204-12.597-9.967-31.27-11.55-45.408-3.851-12.409 6.758-18.961 19.689-17.528 34.592.636 6.598 6.504 11.418 13.094 10.797 6.598-.635 11.431-6.497 10.797-13.094-.526-5.466 1.1-9.03 5.115-11.217 5.561-3.028 14.103-2.313 19.038 1.593 4.246 3.36 5.389 8.764 3.396 16.062-1.018 3.723-9.695 10.493-16.667 15.934zm370.218 90.02c0 141.158-114.841 255.999-256 255.999s-256-114.841-256-255.999 114.841-255.999 256-255.999 256 114.841 256 255.999zm-24 0c0-127.925-104.075-231.999-232-231.999s-232 104.074-232 231.999 104.075 231.999 232 231.999 232-104.074 232-231.999z" fill="#f53855" data-original-color="SVGID_1_" stroke="none" stroke-opacity="1" fill-opacity="1"/></g></svg>