<svg id="Layer_2" viewBox="0 0 64 64" xmlns="http://www.w3.org/2000/svg" data-name="Layer 2" width="300" height="300" version="1.1" xmlns:xlink="http://www.w3.org/1999/xlink" xmlns:svgjs="http://svgjs.dev/svgjs"><g width="100%" height="100%" transform="matrix(1,0,0,1,0,0)"><path d="m62.49 45.54v-1.78c0-.36-.29-.64-.64-.64h-.11v-4.91c.01-.43.14-7.45-3.79-11.45-.27-.52-1.31-.69-3.78-.69h-7.78c-.38 0-.74.1-1.06.26v-4.16c0-1.16-.94-2.11-2.1-2.11h-.25l-22.6-7.61s-.08-.02-.13-.03c-.39-.05-.79 0-1.2.16-.39-.41-.94-.66-1.53-.66-1.18 0-2.13.96-2.13 2.13v4.2h-3.82c-.27 0-.51.16-.6.41l-.72 1.85c-.08.2-.05.42.07.6s.32.28.53.28h13.34c.21 0 .41-.1.53-.28s.15-.4.07-.6l-.72-1.85c-.1-.25-.33-.41-.6-.41h-3.82v-2.87l.86.33.39.85c.07.16.21.29.39.35l18.22 5.97c.06.02.13.03.2.03h2.53c-.04 5.42-.64 6.64-.79 6.86-.24.1-.4.33-.4.6v10.26h-.49v-9.48c0-.26-.16-.5-.4-.6s-.52-.05-.7.14l-1.98 1.98c-.12.12-.19.28-.19.46v5.51h-8.01c.12-.13.24-.26.34-.41h.06c1.33 0 2.13-.23 2.51-.72.2-.27.22-.53.21-.68v-1.09c0-.82-.3-1.38-.48-1.65-.12-.64-.43-1.14-.89-1.46-1.53-1.05-5.54-1.36-6.62-1.42-.74-.59-2.49-1.62-4.01-2.25-1.78-.74-5.9-.4-6.35-.36-2.38.15-4.67.77-6.81 1.84-.42.21-.89.37-1.45.48-.84.17-1.55.35-1.88.43-.4.1-.67.45-.67.87 0 .33-.15.77-.28 1.1-.27.71-.29 2.24-.29 2.86 0 .51.31 1.23 2.86 1.75.14.26.31.5.51.71h-4.4c-.36 0-.64.29-.64.64v1.98c0 .36.29.64.64.64h8.83c-1.65 1.21-2.73 3.16-2.73 5.35 0 .36.29.64.64.64h1.26c.32 2.34 2.31 4.16 4.74 4.16s4.42-1.82 4.74-4.16h11.08c.19.52.69.9 1.27.9h8.12c.59 0 1.08-.38 1.27-.9h2.26c.36 0 .64-.29.64-.64 0-2.91 2.36-5.3 5.26-5.34 1.38.02 2.69.57 3.68 1.56.64.64 1.11 1.44 1.35 2.3.14.46.21.96.21 1.47 0 .36.29.64.64.64h6.89c.57-.09 1.19-.53 1.19-1.32 0-.51-.23-.85-.51-1.06zm-39.25-25.43h-11.46l.22-.56h11.03l.22.56zm-6.57-1.85v-4.2c0-.46.38-.84.84-.84.32 0 .61.18.75.49.06.1.09.23.09.35v4.2zm26.2 3.37h-3.07l-17.85-5.85-.38-.83c-.07-.15-.2-.27-.36-.33l-1.57-.61c0-.09-.02-.17-.03-.25.15-.04.29-.06.43-.05l22.63 7.62c.07.02.14.03.21.03h.36c.45 0 .81.37.81.82v18.46h-1.71v-9.91c.62-.65 1.19-2.66 1.19-8.45 0-.36-.29-.64-.64-.64zm-16.33 13.02c.07-.02.14-.03.21-.04.05 0 .1-.01.15-.01h.24c.06 0 .11 0 .17.02.06 0 .13.03.19.04.06.02.12.03.18.06.06.02.11.05.16.07.06.03.12.06.17.09s.1.07.15.12c.05.04.1.07.14.11.05.05.09.1.13.15s.08.09.11.14c.04.05.07.11.1.17.03.05.06.1.08.16.02.05.04.11.05.16.06.18.1.37.1.57 0 1.03-.84 1.87-1.87 1.87s-1.83-.81-1.86-1.82c.02-.84.55-1.56 1.28-1.81.04-.01.07-.02.11-.03zm-21.42 1.88c-.62-.17-1.03-.34-1.18-.46 0-1.04.09-1.97.21-2.29.14-.38.29-.81.34-1.25.37-.09.92-.22 1.54-.35.67-.14 1.25-.33 1.77-.59 1.98-1 4.1-1.57 6.32-1.71 1.17-.1 4.49-.26 5.75.27 1.68.7 3.44 1.81 3.8 2.15.11.11.26.17.41.18 1.33.06 5.02.41 6.18 1.2.21.14.33.39.38.75.02.12.08.25.16.34.01.01.29.34.29.96v1.02c-.11.05-.37.14-.92.17v-.49c0-.15-.03-.29-.05-.43 0-.07 0-.14-.02-.21-.02-.08-.05-.15-.07-.23-.04-.13-.07-.26-.12-.38-.03-.08-.08-.15-.12-.22-.06-.11-.12-.23-.19-.33-.05-.07-.11-.14-.17-.21-.08-.09-.15-.19-.24-.27-.02-.02-.03-.04-.05-.05-.05-.04-.11-.07-.16-.12-.1-.08-.2-.16-.3-.22-.07-.04-.14-.08-.21-.11-.12-.06-.25-.12-.38-.17-.07-.02-.13-.04-.2-.06-.14-.04-.27-.07-.42-.09-.08-.01-.16-.02-.24-.02s-.15-.02-.22-.02c-.06 0-.12.01-.17.02-.04 0-.08 0-.13 0s-.1.02-.15.03c-.11.02-.22.04-.32.06-.08.02-.15.04-.23.07-.13.04-.26.1-.38.16-.02.01-.05.03-.07.04-1 .53-1.69 1.57-1.69 2.78v.05.05.4h-12.43v-.5s0 0 0 0c0-.22-.02-.44-.07-.65 0-.02-.01-.04-.02-.06-.04-.19-.1-.37-.18-.54-.02-.05-.05-.09-.08-.14-.07-.14-.14-.28-.23-.41-.04-.06-.09-.11-.14-.17-.09-.11-.17-.21-.27-.31-.02-.01-.03-.03-.04-.05-.04-.04-.1-.07-.14-.1-.11-.09-.21-.17-.33-.24-.06-.04-.13-.07-.19-.11-.13-.07-.25-.13-.39-.18-.06-.02-.13-.04-.2-.06-.14-.04-.28-.07-.42-.09-.08-.01-.16-.02-.23-.02-.08 0-.15-.02-.22-.02-.06 0-.12.01-.17.02-.04 0-.09 0-.13 0-.05 0-.1.02-.16.03-.11.02-.21.03-.31.06-.08.02-.16.05-.24.07-.13.04-.25.09-.37.15-.03.02-.06.03-.09.05-1 .53-1.69 1.57-1.69 2.78v.03.04zm2.3-1.73s0 0 .01 0c.08-.04.16-.07.25-.1.04-.01.08-.03.12-.04.07-.02.14-.03.21-.04.05 0 .1-.01.15-.02h.24c.06 0 .11 0 .17.02.07.01.13.03.19.04.06.02.12.03.18.06.06.02.12.05.17.08s.11.05.16.08c.06.04.12.09.18.13l.12.09c.06.06.11.12.16.18.03.03.06.06.08.1.05.08.1.16.14.25.01.03.03.05.04.08.05.11.08.22.11.33v.03c.03.13.04.25.04.38 0 1.03-.84 1.87-1.87 1.87s-1.84-.82-1.86-1.83c.02-.73.43-1.37 1.01-1.69zm3.44 3.44h13.55c.1.15.21.28.34.41h-14.23c.12-.13.24-.26.34-.41zm-8.56 2.39v-.69h35.61c.36 0 .64-.29.64-.64v-5.89l.69-.69v7.92h-36.95zm12.1 1.29c.32 0 .64.03.94.09.03 0 .06 0 .08.01.29.06.57.14.84.24.04.01.08.03.12.04.26.1.51.23.75.37.04.02.08.05.12.07.23.15.45.31.66.49.04.03.07.06.1.09.2.19.39.39.57.6.03.03.05.07.07.1.17.23.33.46.46.72.01.02.02.05.04.07.13.26.25.53.34.81 0 .01.01.03.01.04.09.28.15.58.19.87 0 .03 0 .05.01.08h-.55c0-.07-.03-.13-.04-.19-.02-.12-.05-.23-.08-.35-.05-.18-.1-.36-.17-.53-.04-.11-.09-.22-.14-.33-.08-.17-.16-.32-.26-.48-.06-.1-.12-.2-.19-.29-.11-.15-.22-.29-.35-.42-.08-.09-.15-.17-.24-.25-.14-.13-.28-.24-.43-.35-.09-.07-.17-.14-.27-.2-.17-.11-.34-.2-.52-.28-.09-.04-.17-.09-.27-.13-.21-.09-.44-.15-.66-.21-.07-.02-.13-.04-.2-.06-.31-.06-.62-.1-.94-.1s-.64.04-.94.1c-.06.01-.12.04-.18.05-.23.06-.46.12-.68.21-.09.04-.18.09-.27.13-.18.09-.35.17-.52.28-.1.06-.19.14-.29.21-.14.11-.28.21-.4.33-.1.09-.18.19-.27.28-.11.12-.21.24-.31.37-.08.11-.16.23-.23.35-.08.13-.15.26-.22.4-.07.13-.12.27-.18.41-.05.14-.09.28-.13.42-.04.15-.08.3-.1.46 0 .05-.03.1-.03.14h-.56c.32-2.65 2.58-4.71 5.32-4.71zm0 8.86c-1.93 0-3.51-1.57-3.51-3.5 0-1 .43-1.9 1.1-2.55.63-.6 1.48-.97 2.41-.97 1.94 0 3.51 1.58 3.51 3.51s-1.58 3.51-3.51 3.51zm25.27-3.33s-.03.08-.07.08h-8.12s-.07-.04-.07-.08l.07-3.51 8.19.07zm2.85-.82h-1.56v-2.62c0-.75-.61-1.36-1.36-1.36h-8.12c-.75 0-1.36.61-1.36 1.36v2.62h-9.12s0-.01 0-.02c-.02-.23-.06-.46-.1-.69 0-.04-.02-.08-.03-.12-.04-.18-.09-.36-.14-.54-.02-.08-.05-.15-.08-.22-.05-.14-.1-.28-.16-.41-.04-.08-.08-.16-.11-.24-.06-.12-.12-.24-.19-.36-.05-.08-.1-.16-.14-.24-.07-.11-.14-.22-.21-.33-.05-.08-.11-.15-.17-.23-.08-.1-.16-.2-.24-.3-.06-.07-.13-.14-.19-.21-.09-.09-.17-.18-.26-.27-.07-.07-.14-.13-.22-.2-.09-.08-.19-.16-.29-.24-.05-.03-.09-.07-.13-.11h26.89c-1.49 1.09-2.51 2.78-2.7 4.71zm6.72-5.98s-.06-.02-.1-.02c-.03 0-.07 0-.12 0-.03 0-.06 0-.09 0h-3.61v-12.21c0-.59.48-1.06 1.06-1.06h7.78c1.91 0 2.55.13 2.74.19 0 0 .01.01.02.02 3.68 3.62 3.53 10.55 3.52 10.62v.02 4.92h-.89c-.36 0-.64.29-.64.64v1.21h-3.75c-.33-.9-.85-1.72-1.53-2.4-1.19-1.18-2.74-1.85-4.39-1.92zm6.3 5.98c-.01-.12-.03-.25-.05-.37h4.06c.36 0 .64-.29.64-.64v-1.21h1v1.55c0 .33.19.56.51.6v.04c-.01.01-.04.02-.06.03h-6.11z" fill="#f53855" fill-opacity="1" data-original-color="#000000ff" stroke="none" stroke-opacity="1"/><path d="m59.16 37.49c.33-.06.56-.35.53-.68-.15-2.1-.73-5.98-2.98-8.46-.1-.11-.24-.19-.4-.21-.34-.04-1-.09-2.16-.09h-5.84c-.36 0-.64.29-.64.64v5.87c0 .26.16.5.4.6.27.11 6.01 2.42 9.87 2.42.43 0 .84-.03 1.22-.09zm-10.2-3.36v-4.78h5.19c.88 0 1.44.03 1.76.06 1.67 1.97 2.24 4.94 2.44 6.88-3 .18-7.96-1.61-9.4-2.16z" fill="#f53855" fill-opacity="1" data-original-color="#000000ff" stroke="none" stroke-opacity="1"/><path d="m53.93 47.27c0-2.65-2.15-4.8-4.8-4.8s-4.8 2.15-4.8 4.8 2.15 4.8 4.8 4.8 4.8-2.15 4.8-4.8zm-8.32 0c0-1.94 1.58-3.51 3.51-3.51s3.51 1.58 3.51 3.51-1.58 3.51-3.51 3.51-3.51-1.58-3.51-3.51z" fill="#f53855" fill-opacity="1" data-original-color="#000000ff" stroke="none" stroke-opacity="1"/><path d="m51.89 47.27c0-1.52-1.24-2.76-2.76-2.76s-2.76 1.24-2.76 2.76 1.24 2.76 2.76 2.76 2.76-1.24 2.76-2.76zm-4.23 0c0-.81.66-1.47 1.47-1.47s1.47.66 1.47 1.47-.66 1.47-1.47 1.47-1.47-.66-1.47-1.47z" fill="#f53855" fill-opacity="1" data-original-color="#000000ff" stroke="none" stroke-opacity="1"/><path d="m14.39 44.51c-1.52 0-2.76 1.24-2.76 2.76s1.24 2.76 2.76 2.76 2.76-1.24 2.76-2.76-1.24-2.76-2.76-2.76zm0 4.23c-.81 0-1.47-.66-1.47-1.47s.66-1.47 1.47-1.47 1.47.66 1.47 1.47-.66 1.47-1.47 1.47z" fill="#f53855" fill-opacity="1" data-original-color="#000000ff" stroke="none" stroke-opacity="1"/><path d="m10.31 32.99 11.81.33h.02c.27 0 .52-.17.61-.43s0-.56-.22-.73c-2.53-1.9-3.94-2.1-6.56-2.1s-3.71.14-5.06.67c-.76.3-1.18.68-1.29 1.16-.09.39.07.72.24.9.12.12.28.19.45.2zm5.67-1.65c1.62 0 2.65.07 3.83.62l-7.91-.22c.98-.31 1.98-.4 4.08-.4z" fill="#f53855" fill-opacity="1" data-original-color="#000000ff" stroke="none" stroke-opacity="1"/><path d="m57.7 42.31c.89 0 1.61-.72 1.61-1.62s-.72-1.61-1.61-1.61h-1.75c-.89 0-1.61.72-1.61 1.62s.72 1.61 1.61 1.61zm-2.07-1.62c0-.18.14-.32.32-.32h1.75c.18 0 .32.14.32.33s-.14.32-.32.32h-1.75c-.18 0-.32-.14-.32-.33z" fill="#f53855" fill-opacity="1" data-original-color="#000000ff" stroke="none" stroke-opacity="1"/></g></svg>