<svg id="oil_tanker" viewBox="0 0 64 64" xmlns="http://www.w3.org/2000/svg" data-name="oil tanker" width="300" height="300" version="1.1" xmlns:xlink="http://www.w3.org/1999/xlink" xmlns:svgjs="http://svgjs.dev/svgjs"><g width="100%" height="100%" transform="matrix(1,0,0,1,0,0)"><path d="m29 29c-.55273 0-1-.44775-1-1 0-2.9585 1.875-5.61035 4.66602-6.59961.51758-.1875 1.0918.08691 1.27637.6084.18457.52051-.08789 1.0918-.6084 1.27637-1.99414.70703-3.33398 2.60156-3.33398 4.71484 0 .55225-.44727 1-1 1zm18 4c0-1.82568-2.60547-6.55908-3.12793-7.48975-.35352-.62988-1.39062-.62988-1.74414 0-.52246.93066-3.12793 5.66406-3.12793 7.48975 0 2.20557 1.79395 4 4 4s4-1.79443 4-4zm-2 0c0 1.10303-.89746 2-2 2s-2-.89697-2-2c0-.67969.92871-2.81006 2-4.88818 1.07129 2.07812 2 4.2085 2 4.88818zm8-2c0-5.51416-4.48633-10-10-10s-10 4.48584-10 10 4.48633 10 10 10 10-4.48584 10-10zm-2 0c0 4.41113-3.58887 8-8 8s-8-3.58887-8-8 3.58887-8 8-8 8 3.58887 8 8zm-21 1c0-.55228-.44772-1-1-1s-1 .44772-1 1 .44772 1 1 1 1-.44772 1-1zm27.28937 11h.71063c1.6543 0 3 1.3457 3 3s-1.3457 3-3 3h-1.55634c-.69379 1.18976-1.96954 2-3.44366 2s-2.74988-.81024-3.44366-2h-3.11267c-.69379 1.18976-1.96954 2-3.44366 2s-2.74988-.81024-3.44366-2h-22.11269c-.69379 1.18976-1.96954 2-3.44366 2s-2.74988-.81024-3.44366-2h-5.55634c-1.6543 0-3-1.3457-3-3s1.3457-3 3-3v-7c0-.55225.44727-1 1-1h2.08008l.92383-11.08301c.04297-.51855.47559-.91699.99609-.91699h2v-1c0-1.6543 1.3457-3 3-3h6c.55273 0 1 .44775 1 1v23h6.71063c-2.84216-1.98877-4.71063-5.27521-4.71063-9v-6c0-6.06543 4.93457-11 11-11h3v-2h-2c-.55273 0-1-.44775-1-1s.44727-1 1-1h14c.55273 0 1 .44775 1 1s-.44727 1-1 1h-2v2h3c6.06543 0 11 4.93457 11 11v6c0 3.72479-1.86847 7.01123-4.71063 9zm-51.28937 2h-1c-.55176 0-1 .44873-1 1s.44824 1 1 1h1zm4.08636-10h5.91364v-6h-5.41351l-.50012 6zm5.91364 12c0-1.10303-.89746-2-2-2s-2 .89697-2 2 .89746 2 2 2 2-.89697 2-2zm4-22h-9.08008l-.16669 2h6.24677c.55273 0 1 .44775 1 1v8c0 .55225-.44727 1-1 1h-10v6c.55273 0 1 .44775 1 1v3h2c0-2.20557 1.79395-4 4-4s4 1.79443 4 4h2zm0-4h-5c-.55176 0-1 .44873-1 1v1h6zm20-4h6v-2h-6zm-.44366 28h-17.55634v2h17c0-.73175.21185-1.40924.55634-2zm5.44366 2c0-1.10303-.89746-2-2-2s-2 .89697-2 2 .89746 2 2 2 2-.89697 2-2zm4.55634-2h-3.11267c.34448.59076.55634 1.26825.55634 2h2c0-.73175.21185-1.40924.55634-2zm5.44366 2c0-1.10303-.89746-2-2-2s-2 .89697-2 2 .89746 2 2 2 2-.89697 2-2zm1.44366-2c.34448.59076.55634 1.26825.55634 2h1c.55176 0 1-.44873 1-1s-.44824-1-1-1zm3.55634-11v-6c0-4.9624-4.03711-9-9-9h-16c-4.96289 0-9 4.0376-9 9v6c0 4.9624 4.03711 9 9 9h16c4.96289 0 9-4.0376 9-9z" fill="#f53855" fill-opacity="1" data-original-color="#000000ff" stroke="none" stroke-opacity="1"/></g></svg>