<svg clip-rule="evenodd" fill-rule="evenodd" height="300" image-rendering="optimizeQuality" shape-rendering="geometricPrecision" text-rendering="geometricPrecision" viewBox="0 0 173.397 173.397" width="300" xmlns="http://www.w3.org/2000/svg" version="1.1" xmlns:xlink="http://www.w3.org/1999/xlink" xmlns:svgjs="http://svgjs.dev/svgjs"><g width="100%" height="100%" transform="matrix(1,0,0,1,0,0)"><g id="Layer_x0020_1"><g id="_248708264" fill-rule="nonzero"><path id="_248709464" d="m131.556 149.08h21.9125l-.0097-5.6888v-16.449h-2.4654c-.3575 0-.6954-.1405-.9484-.3923-.2545-.253-.395-.5937-.395-.9497l.0042-11.5778h-22.0321l-23.4283 12.757c-.1988.107-.42.1628-.6438.1628h-81.3398v22.1378h13.2103c.7385-8.9177 8.2559-15.9638 17.3474-15.9638 9.0873 0 16.6062 7.0461 17.3445 15.9638h26.749c.7369-8.9177 8.2558-15.9638 17.3473-15.9638 9.0901 0 16.6089 7.0461 17.3473 15.9638zm23.2586 2.6851h-24.5435c-.737 0-1.3377-.5965-1.3419-1.335-.0487-8.0666-6.6538-14.63-14.7205-14.63-8.0681 0-14.6691 6.5634-14.7178 14.63-.0069.7385-.6049 1.335-1.3432 1.335h-29.3188c-.7383 0-1.3363-.5965-1.3432-1.335-.0487-8.0666-6.6511-14.63-14.7178-14.63-8.0709 0-14.6719 6.5634-14.7205 14.63-.0042.7385-.6049 1.335-1.3434 1.335h-15.8357c-.7425 0-1.3433-.6007-1.3433-1.3419v-24.823c0-.7411.6008-1.3419 1.3433-1.3419h82.3397l23.431-12.7584c.196-.107.4158-.1628.6424-.1628h23.7189c.3532 0 .6952.1419.947.3936.253.2517.3963.5938.3963.9498l-.007 11.5778h2.4641c.7426 0 1.3433.6008 1.3433 1.3419v17.7868l.0139 7.032c0 .3574-.1404.6995-.3922.9512-.2516.253-.5937.3949-.9511.3949z" fill="#f53855" fill-opacity="1" data-original-color="#000000ff" stroke="none" stroke-opacity="1"/><path id="_248709800" d="m139.45 114.022c-.744 0-1.3418-.6008-1.3418-1.3419v-3.2817h-14.3966c-.7412 0-1.3419-.6008-1.3419-1.342 0-.7425.6007-1.3432 1.3419-1.3432h15.7384c.7412 0 1.3433.6007 1.3433 1.3432v4.6237c0 .7411-.6021 1.3419-1.3433 1.3419zm13.6651 0h-2.3458c-.7413 0-1.3433-.6008-1.3433-1.3419 0-.7426.602-1.3434 1.3433-1.3434h1.0039v-10.6294h-10.9799v.2225c0 .7411-.6021 1.3419-1.3433 1.3419h-15.8357c-.7412 0-1.3433-.6008-1.3433-1.3419 0-.7426.6021-1.3432 1.3433-1.3432h14.4939v-.2226c0-.7412.5978-1.3418 1.3418-1.3418h13.6651c.7412 0 1.3433.6006 1.3433 1.3418v13.3161c0 .7411-.6021 1.3419-1.3433 1.3419z" fill="#f53855" fill-opacity="1" data-original-color="#000000ff" stroke="none" stroke-opacity="1"/><path id="_248709416" d="m100.27 126.971c-.7398 0-1.342-.6007-1.342-1.3419v-32.3779h-32.6032l-9.1958 24.645 4.6056 6.9626c.4088.6188.2378 1.4517-.3782 1.8605-.6188.4089-1.4546.2392-1.8634-.3782l-4.9838-7.5327c-.2336-.3573-.2865-.8079-.1363-1.2097l9.7632-26.1608c.196-.5242.6953-.8733 1.2557-.8733h34.8782c.7425 0 1.3432.6021 1.3432 1.3434v33.7211c0 .7412-.6007 1.3419-1.3432 1.3419z" fill="#f53855" fill-opacity="1" data-original-color="#000000ff" stroke="none" stroke-opacity="1"/><path id="_248709176" d="m86.6437 99.2879v6.3424l6.9305-1.9927v-4.3497zm-1.3419 9.4684c-.2878 0-.5701-.0932-.8079-.2712-.3365-.253-.5354-.6507-.5354-1.072v-9.4684c0-.7412.6021-1.3419 1.3433-1.3419h9.6158c.7411 0 1.3419.6007 1.3419 1.3419v6.7038c0 .5994-.3949 1.1264-.9721 1.2919l-9.6157 2.7631c-.1224.0348-.2448.0528-.3699.0528z" fill="#f53855" fill-opacity="1" data-original-color="#000000ff" stroke="none" stroke-opacity="1"/><path id="_248708360" d="m65.489 113.593h6.056l6.8791-5.0631v-9.4711l-7.3604-.0598zm6.5009 2.6852h-8.4477c-.445 0-.8565-.2184-1.1055-.5813-.2517-.3643-.3073-.8288-.1502-1.2404l6.601-17.286c.1962-.5215.6967-.8651 1.2516-.8651h.0152l9.6227.0793c.7371.0056 1.3322.605 1.3322 1.3419v11.4834c0 .4255-.203.8273-.5451 1.0804l-7.7802 5.7263c-.2308.1697-.5117.2615-.794.2615z" fill="#f53855" fill-opacity="1" data-original-color="#000000ff" stroke="none" stroke-opacity="1"/><path id="_248708624" d="m100.274 123.101c-.427 0-.8428-.2003-1.1042-.5744-.4242-.609-.2739-1.4461.3351-1.8702l19.931-13.9001c.2448-.1739.5451-.2545.8427-.2406l2.0691.1182-.2266-16.9023h-2.3807c-.3225 0-.6368-.1168-.8788-.3268l-88.052-76.1836-5.4872 4.0563 83.3506 74.5274c.3281.2921.4936.7259.4407 1.1598-.0528.4352-.3143.8176-.6994 1.0247l-7.5077 4.0188c-.6563.3505-1.4684.1043-1.8174-.5492-.3505-.655-.1058-1.4685.5478-1.8176l5.8154-3.1134-83.1475-74.348c-.3032-.2684-.4645-.6591-.4478-1.0623.0181-.4034.2169-.7774.5424-1.018l7.6745-5.6777c.5047-.3726 1.2042-.3462 1.6784.0654l88.4873 76.559h3.2067c.7341 0 1.3321.5896 1.3432 1.3252l.2656 19.6668c.0028.3727-.1474.73-.4157.9873-.2699.2572-.637.3907-1.0041.3712l-3.0453-.1738-19.55 13.6359c-.235.1641-.5006.242-.7661.242z" fill="#f53855" fill-opacity="1" data-original-color="#000000ff" stroke="none" stroke-opacity="1"/><path id="_248708768" d="m25.5714 58.0896c-.7412 0-1.3433-.6007-1.3433-1.3418v-37.4466c0-.7412.6021-1.3419 1.3433-1.3419s1.3419.6007 1.3419 1.3419v37.4466c0 .7411-.6007 1.3418-1.3419 1.3418z" fill="#f53855" fill-opacity="1" data-original-color="#000000ff" stroke="none" stroke-opacity="1"/><path id="_248709008" d="m22.0046 85.5714h7.1336l1.6742-12.1883c-3.5946-3.0189-6.9513-3.0217-10.482-.0069zm8.3045 2.6837h-9.4753c-.6717 0-1.239-.4936-1.3294-1.1596l-1.9329-14.0629c-.0598-.4324.0973-.8676.4158-1.1652 4.9197-4.5792 10.1608-4.5819 15.1613-.0083.3254.2975.4826.7369.4227 1.1735l-1.93 14.0629c-.0904.666-.6606 1.1596-1.3322 1.1596z" fill="#f53855" fill-opacity="1" data-original-color="#000000ff" stroke="none" stroke-opacity="1"/><path id="_248708912" d="m25.5714 71.1151c-.7412 0-1.3433-.6008-1.3433-1.3419v-13.0254c0-.7412.6021-1.3434 1.3433-1.3434s1.3419.6022 1.3419 1.3434v13.0254c0 .7411-.6007 1.3419-1.3419 1.3419z" fill="#f53855" fill-opacity="1" data-original-color="#000000ff" stroke="none" stroke-opacity="1"/><path id="_248709056" d="m114.209 140.49c-5.5317 0-10.033 4.4998-10.033 10.0315 0 5.5303 4.5013 10.0302 10.033 10.0302 5.5316 0 10.0315-4.4999 10.0315-10.0302 0-5.5317-4.4999-10.0315-10.0315-10.0315zm0 22.7468c-7.0112 0-12.714-5.704-12.714-12.7153 0-7.0112 5.7028-12.7167 12.714-12.7167 7.0099 0 12.7167 5.7055 12.7167 12.7167 0 7.0113-5.7068 12.7153-12.7167 12.7153z" fill="#f53855" fill-opacity="1" data-original-color="#000000ff" stroke="none" stroke-opacity="1"/><path id="_248708000" d="m52.7681 140.49c-5.5316 0-10.0315 4.4998-10.0315 10.0315 0 5.5303 4.4999 10.0302 10.0315 10.0302 5.5289 0 10.0288-4.4999 10.0288-10.0302 0-5.5317-4.4999-10.0315-10.0288-10.0315zm0 22.7468c-7.0141 0-12.7167-5.704-12.7167-12.7153 0-7.0112 5.7026-12.7167 12.7167-12.7167 7.0112 0 12.714 5.7055 12.714 12.7167 0 7.0113-5.7028 12.7153-12.714 12.7153z" fill="#f53855" fill-opacity="1" data-original-color="#000000ff" stroke="none" stroke-opacity="1"/><path id="_248707952" d="m52.7681 147.057c-1.912 0-3.4653 1.5547-3.4653 3.4653s1.5533 3.4639 3.4653 3.4639c1.9093 0 3.4611-1.5533 3.4611-3.4639s-1.5518-3.4653-3.4611-3.4653zm0 9.6144c-3.3916 0-6.1504-2.7588-6.1504-6.1491 0-3.3915 2.7588-6.1505 6.1504-6.1505 3.3888 0 6.1477 2.759 6.1477 6.1505 0 3.3903-2.7589 6.1491-6.1477 6.1491z" fill="#f53855" fill-opacity="1" data-original-color="#000000ff" stroke="none" stroke-opacity="1"/><path id="_248707640" d="m114.209 147.057c-1.9093 0-3.4653 1.5547-3.4653 3.4653s1.556 3.4639 3.4653 3.4639c1.9092 0 3.4653-1.5533 3.4653-3.4639s-1.5561-3.4653-3.4653-3.4653zm0 9.6144c-3.393 0-6.1519-2.7588-6.1519-6.1491 0-3.3915 2.7589-6.1505 6.1519-6.1505 3.3916 0 6.1504 2.759 6.1504 6.1505 0 3.3903-2.7588 6.1491-6.1504 6.1491z" fill="#f53855" fill-opacity="1" data-original-color="#000000ff" stroke="none" stroke-opacity="1"/><path id="_248707712" d="m135.493 137.116c-.7412 0-1.3433-.6021-1.3433-1.3433v-8.4421c0-.7412.6021-1.3433 1.3433-1.3433.7411 0 1.3419.6021 1.3419 1.3433v8.4421c0 .7412-.6008 1.3433-1.3419 1.3433z" fill="#f53855" fill-opacity="1" data-original-color="#000000ff" stroke="none" stroke-opacity="1"/><path id="_248707568" d="m142.059 137.116c-.7411 0-1.3418-.6021-1.3418-1.3433v-8.4421c0-.7412.6007-1.3433 1.3418-1.3433.7412 0 1.3434.6021 1.3434 1.3433v8.4421c0 .7412-.6022 1.3433-1.3434 1.3433z" fill="#f53855" fill-opacity="1" data-original-color="#000000ff" stroke="none" stroke-opacity="1"/><path id="_248708144" d="m27.0051 108.46c-2.8993 0-5.2661-.8219-7.0391-2.446-1.8077-1.6479-2.7269-3.685-2.7269-6.0504 0-1.3696.3282-2.6532.9748-3.8143.6258-1.125 1.7493-2.3931 3.4306-3.8769 1.2724-1.1305 1.7131-1.6422 1.8633-1.8467.2239-.3058.3879-.6605.5006-1.0706.0876-.3171.1919-.9929.2197-2.4669.014-.7412.6397-1.335 1.3669-1.3169.7454.0139 1.3322.6258 1.3183 1.367-.0278 1.4489-.1293 2.4404-.3185 3.1232-.1877.7133-.4991 1.3725-.9191 1.9509-.395.534-1.1083 1.2529-2.2514 2.2708-1.7826 1.5741-2.5419 2.5934-2.8631 3.1719-.4269.7676-.6369 1.5894-.6369 2.5085 0 1.6006.6077 2.9327 1.8537 4.0688 1.2793 1.1737 2.9897 1.7424 5.2271 1.7424 2.1053 0 3.7197-.5256 4.9476-1.6103 1.2279-1.0846 1.9509-2.6462 2.2138-4.7724.0862-.737.7579-1.2612 1.492-1.1694.7385.0904 1.2627.7592 1.1723 1.4948-.3393 2.7687-1.3808 4.9421-3.0981 6.4592-1.7174 1.5158-3.9798 2.2833-6.7276 2.2833z" fill="#f53855" fill-opacity="1" data-original-color="#000000ff" stroke="none" stroke-opacity="1"/></g></g><path d="m0 0h173.397v173.397h-173.397z" fill="none" fill-opacity="1" stroke="none" stroke-opacity="1"/></g></svg>