<svg id="Layer_1" enable-background="new 0 0 512 512" viewBox="0 0 512 512" xmlns="http://www.w3.org/2000/svg" width="300" height="300" version="1.1" xmlns:xlink="http://www.w3.org/1999/xlink" xmlns:svgjs="http://svgjs.dev/svgjs"><g width="100%" height="100%" transform="matrix(1,0,0,1,0,0)"><path d="m490.225 305.273 14.402-31.575c1.126-2.47.92-5.343-.548-7.626s-3.997-3.664-6.711-3.664h-51.18l-33.377-61.037c-14.522-26.552-40.204-41.78-70.459-41.78h-172.674c-30.243 0-55.934 15.226-70.49 41.781l-33.376 61.036h-51.18c-2.714 0-5.243 1.38-6.711 3.664-1.468 2.283-1.674 5.156-.548 7.626l14.402 31.575c1.296 2.843 4.134 4.668 7.259 4.668h10.787l-19.768 36.15c-.641 1.174-.979 2.489-.979 3.828v77.324 54.577c0 16.365 13.315 29.68 29.679 29.68h41.309c16.365 0 29.679-13.315 29.679-29.68v-9.166h272.518v9.166c0 16.365 13.314 29.68 29.68 29.68h41.308c16.364 0 29.679-13.315 29.679-29.68v-54.577-77.324c0-1.338-.337-2.654-.979-3.828l-19.768-36.15h10.787c3.125-.001 5.962-1.825 7.259-4.668zm-456.061-11.29-7.124-15.618h30.046l-8.541 15.618zm69.619 187.837c0 7.567-6.155 13.722-13.721 13.722h-41.309c-7.566 0-13.721-6.155-13.721-13.722v-20.055c7.937 6.781 18.221 10.889 29.453 10.889h39.298zm373.185 0c0 7.567-6.155 13.722-13.721 13.722h-41.308c-7.567 0-13.722-6.155-13.722-13.722v-9.166h39.299c11.231 0 21.516-4.108 29.452-10.889zm0-129.862v75.285c0 16.24-13.212 29.452-29.452 29.452h-383.031c-16.241 0-29.453-13.212-29.453-29.452v-75.285l78.153-142.923c11.666-21.281 32.255-33.487 56.493-33.487h172.673c24.243 0 44.822 12.203 56.459 33.48l44.345 81.096 8.562 15.664c.008.014.018.026.025.039zm-13.515-57.975-5.674-10.376-2.865-5.242h30.045l-7.124 15.618zm-63.131-14.372h-22.542c-3.819-24.473-25.04-43.26-50.567-43.26s-46.748 18.787-50.567 43.26h-98.99c-4.407 0-7.979 3.572-7.979 7.979 0 4.406 3.572 7.979 7.979 7.979h222.666c6.077 0 11.503-3.156 14.483-8.388 3.011-5.189 3.124-11.434.305-16.706l-29.704-55.561c-9.247-17.339-25.663-27.283-45.037-27.283h-168.738c-19.375 0-35.791 9.944-45.034 27.277l-29.666 55.512c-2.852 5.291-2.755 11.555.261 16.756 3.047 5.254 8.472 8.391 14.514 8.391h44.986c4.407 0 7.979-3.572 7.979-7.979s-3.572-7.979-7.979-7.979h-44.986c-.344 0-.475-.034-.709-.438-.251-.433-.256-.743-.007-1.206l29.683-55.545c6.571-12.322 17.276-18.835 30.958-18.835h168.739c13.681 0 24.386 6.513 30.96 18.842l29.708 55.568c.226.422.216.741-.066 1.229-.18.318-.296.387-.65.387zm-107.424 0c3.604-15.619 17.616-27.303 34.315-27.303s30.71 11.684 34.315 27.303zm-143.817 75.018-84.37-15.194c-2.327-.42-4.718.214-6.532 1.731-1.813 1.516-2.862 3.758-2.862 6.121v38.507c0 4.407 3.572 7.979 7.979 7.979h84.37c4.407 0 7.979-3.572 7.979-7.979v-23.313c.001-3.861-2.765-7.168-6.564-7.852zm-9.394 23.186h-68.412v-20.985l68.412 12.321zm307.602-38.38-84.37 15.194c-3.799.684-6.565 3.991-6.565 7.852v23.313c0 4.407 3.573 7.979 7.979 7.979h84.37c4.407 0 7.979-3.572 7.979-7.979v-38.507c0-2.364-1.049-4.605-2.862-6.121-1.812-1.517-4.205-2.153-6.531-1.731zm-6.564 38.38h-68.412v-8.664l68.412-12.321zm-113.691 1.963c-.503-1.807-1.1-3.661-1.773-5.512-1.146-3.152-4.143-5.251-7.498-5.251h-123.497c-3.308 0-6.273 2.042-7.454 5.132-.717 1.88-1.295 3.76-1.812 5.511-.01.031-.02.063-.028.096l-14.062 49.909c-.677 2.405-.189 4.989 1.319 6.98 1.508 1.992 3.863 3.163 6.361 3.163h154.848c2.5 0 4.854-1.172 6.362-3.164 1.508-1.993 1.995-4.577 1.317-6.983zm-137.907 44.069 10.953-38.874h111.839l10.976 38.874zm31.649-276.846h70.477c7.832 0 14.204-6.371 14.204-14.203v-59.67c0-7.832-6.372-14.203-14.204-14.203h-57.377v-20.343c0-12.2 9.924-22.125 22.125-22.125 12.2 0 22.124 9.926 22.124 22.125 0 4.407 3.573 7.979 7.979 7.979 4.407 0 7.979-3.572 7.979-7.979 0-20.999-17.084-38.082-38.083-38.082-21 0-38.083 17.083-38.083 38.082v20.631c-6.482 1.324-11.374 7.06-11.374 13.915v59.67c0 7.832 6.386 14.203 14.233 14.203zm1.725-72.119h66.997v56.161h-66.997zm46.344 28.067c0 7.098-5.762 12.873-12.845 12.873s-12.846-5.775-12.846-12.873c0-7.083 5.762-12.845 12.846-12.845 7.083 0 12.845 5.762 12.845 12.845zm-126.215-22.012c0-10.676 3.385-21.288 9.787-30.69 2.479-3.643 7.444-4.584 11.085-2.103 3.643 2.48 4.584 7.443 2.104 11.086-4.658 6.839-7.019 14.143-7.019 21.708 0 7.584 2.361 14.898 7.019 21.737 2.479 3.642 1.538 8.605-2.104 11.085-1.375.936-2.937 1.385-4.484 1.385-2.551 0-5.057-1.221-6.602-3.489-6.401-9.403-9.786-20.025-9.786-30.719zm203.764 21.737c4.677-6.868 7.047-14.182 7.047-21.737 0-7.536-2.371-14.84-7.047-21.708-2.479-3.643-1.538-8.606 2.104-11.086 3.64-2.478 8.605-1.539 11.085 2.104 6.421 9.431 9.815 20.043 9.815 30.69 0 10.665-3.394 21.287-9.815 30.718-1.544 2.268-4.051 3.489-6.602 3.489-1.547 0-3.109-.448-4.484-1.385-3.641-2.479-4.582-7.442-2.103-11.085zm42.839-73.268c-3.01-3.218-2.841-8.267.376-11.278 3.22-3.01 8.268-2.841 11.277.376 17.141 18.324 26.202 39.913 26.202 62.432 0 22.538-9.061 44.137-26.202 62.461-1.571 1.679-3.697 2.528-5.829 2.528-1.953 0-3.91-.713-5.449-2.152-3.218-3.01-3.386-8.059-.376-11.278 14.326-15.314 21.897-33.143 21.897-51.56.001-18.396-7.57-36.215-21.896-51.529zm-21.164 14.929c-2.833-3.375-2.395-8.408.98-11.241s8.407-2.395 11.241.98c11.735 13.979 17.939 30.184 17.939 46.863 0 16.697-6.204 32.912-17.939 46.891-1.578 1.879-3.838 2.848-6.114 2.848-1.811 0-3.631-.613-5.126-1.868-3.375-2.833-3.814-7.866-.98-11.241 9.292-11.067 14.203-23.733 14.203-36.63-.002-12.878-4.912-25.535-14.204-36.602zm-256.923 99.068c-17.163-18.314-26.235-39.914-26.235-62.466 0-22.534 9.072-44.124 26.235-62.438 3.015-3.215 8.063-3.379 11.277-.365 3.216 3.013 3.379 8.062.367 11.277-14.341 15.302-21.92 33.119-21.92 51.526 0 18.425 7.579 36.253 21.92 51.554 3.013 3.215 2.849 8.265-.367 11.278-1.539 1.443-3.499 2.157-5.454 2.157-2.129 0-4.251-.847-5.823-2.523zm2.625-62.466c0-16.641 6.201-32.843 17.932-46.854 2.829-3.379 7.86-3.825 11.24-.996 3.378 2.829 3.824 7.861.995 11.239-9.296 11.103-14.208 23.763-14.208 36.61 0 12.866 4.913 25.536 14.208 36.639 2.829 3.378 2.383 8.41-.995 11.239-1.495 1.251-3.311 1.861-5.119 1.861-2.28 0-4.543-.972-6.121-2.857-11.73-14.01-17.932-30.222-17.932-46.881z" fill="#f53855" fill-opacity="1" data-original-color="#000000ff" stroke="none" stroke-opacity="1"/></g></svg>