<svg xmlns="http://www.w3.org/2000/svg" xmlns:xlink="http://www.w3.org/1999/xlink" xmlns:svgjs="http://svgjs.dev/svgjs" id="glipy_copy_4" viewBox="0 0 64 64" data-name="glipy copy 4" width="300" height="300" version="1.1"><g width="100%" height="100%" transform="matrix(1,0,0,1,0,0)"><linearGradient id="linear-gradient" gradientUnits="userSpaceOnUse" x1="2" x2="62" y1="31.996" y2="31.996"><stop offset="0" stop-color="#00c0ff"/><stop offset="1" stop-color="#5558ff"/></linearGradient><path d="m32 1.99642a30 30 0 1 0 30 30 30.03665 30.03665 0 0 0 -30-30zm0 6.01a8.24588 8.24588 0 1 1 -6.1 13.79 8.28488 8.28488 0 0 1 6.1-13.78999zm-12.18 14.99a4.90459 4.90459 0 0 1 3.38-2.55 9.75951 9.75951 0 0 0 17.61 0 4.89257 4.89257 0 0 1 3.37 2.55l2.33 4.84-5.35 2.17a5.19814 5.19814 0 0 1 -1.87994.37c-1.09-.13-15.86.34-16.41-.36-.92-.37-4.53-1.84-5.37-2.18zm-8.82 11.82h2.45a2.1522 2.1522 0 0 1 1.51.63l.77.76h-4.73zm8.73 12.99a2.19149 2.19149 0 0 1 -2.2 2.19h-2.88a2.19151 2.19151 0 0 1 -2.2-2.19v-1.37h7.28zm20.2-2.87h-15.86v-1.83a.70864.70864 0 0 1 .7-.7h14.46a.70864.70864 0 0 1 .7.7zm11.62 2.87a2.18934 2.18934 0 0 1 -2.19 2.19h-2.89a2.19149 2.19149 0 0 1 -2.2-2.19v-1.37h7.28zm1.45-11.6h-4.72l.76-.76a2.15786 2.15786 0 0 1 1.52-.63h2.44zm-2.44-2.89c-1.92-.14-3.4 1.98-4.62 3.11a.75006.75006 0 0 0 .53 1.28h6.53v5.76a1.46817 1.46817 0 0 1 -1.45 1.47h-10.12v-1.83a2.20005 2.20005 0 0 0 -2.2-2.2h-14.46a2.2065 2.2065 0 0 0 -2.2 2.2v1.83h-10.12a1.4748 1.4748 0 0 1 -1.45-1.47v-5.76h6.53a.75517.75517 0 0 0 .54-1.28c-1.25-1.15-2.7-3.25-4.62-3.11 0-.02-2.48.02-2.45-.02a4.3947 4.3947 0 0 1 5.85-4.11l1.39.57 4.06 1.64a6.53631 6.53631 0 0 0 2.43.48h14.55c1.73.11 4.86-1.54 6.48-2.12l1.4-.56a4.35508 4.35508 0 0 1 5.84 4.12zm-12.78 4.39h-11.56a.75009.75009 0 0 1 0-1.5h11.56a.75009.75009 0 0 1 0 1.50002zm-5.97-27.08a1.14021 1.14021 0 0 1 0 2.28 1.14021 1.14021 0 0 1 0-2.28zm-.56 9.75v-4.82h-.42a.75015.75015 0 0 1 0-1.5h1.17a.749.749 0 0 1 .75.75v5.57c.56-.05 1.14.08 1.17.75a.749.749 0 0 1 -.75.75h-2.34a.749.749 0 0 1 -.75-.75c.03-.67999.61-.79999 1.17-.75z" fill="#f53855" data-original-color="linear-gradient" stroke="none" stroke-opacity="1" fill-opacity="1"/></g></svg>