<svg xmlns="http://www.w3.org/2000/svg" xmlns:xlink="http://www.w3.org/1999/xlink" version="1.1" id="Capa_1" x="0px" y="0px" viewBox="0 0 512.394 512.394" style="enable-background:new 0 0 512.394 512.394;" xml:space="preserve" width="300" height="300" xmlns:svgjs="http://svgjs.dev/svgjs"><g width="100%" height="100%" transform="matrix(1,0,0,1,0,0)"><g>
	<g>
		<g>
			<path style="stroke-miterlimit: 10;" d="M359.324,203.947h-76.12l0.013-6.665&#10;&#9;&#9;&#9;&#9;l48.052-54.624c5.528-6.284,8.577-14.366,8.577-22.735v0c0-15.639-12.678-28.318-28.318-28.318h0&#10;&#9;&#9;&#9;&#9;c-15.639,0-28.318,12.678-28.318,28.318v2.945" fill="none" fill-opacity="1" stroke="#f53855" stroke-opacity="1" data-original-stroke-color="#000000ff" stroke-width="30" data-original-stroke-width="30"/>
			<polyline style="stroke-miterlimit: 10;" points="427.106,173.806 374.6,173.806 &#10;&#9;&#9;&#9;&#9;374.611,159.823 409.846,98.777 427.106,98.777 427.106,219.036 &#9;&#9;&#9;" fill="none" fill-opacity="1" stroke="#f53855" stroke-opacity="1" data-original-stroke-color="#000000ff" stroke-width="30" data-original-stroke-width="30"/>
		</g>
		<circle style="stroke-miterlimit: 10;" cx="357.246" cy="155.321" r="140.149" fill="none" fill-opacity="1" stroke="#f53855" stroke-opacity="1" data-original-stroke-color="#000000ff" stroke-width="30" data-original-stroke-width="30"/>
	</g>
	<g>
		<g>
			<g>
				<g>
					<g>
						<g>
							<circle style="stroke-miterlimit: 10;" cx="100.715" cy="459.71" r="37.512" fill="none" fill-opacity="1" stroke="#f53855" stroke-opacity="1" data-original-stroke-color="#000000ff" stroke-width="30" data-original-stroke-width="30"/>
							<circle style="stroke-miterlimit: 10;" cx="175.739" cy="459.71" r="37.512" fill="none" fill-opacity="1" stroke="#f53855" stroke-opacity="1" data-original-stroke-color="#000000ff" stroke-width="30" data-original-stroke-width="30"/>
							<circle style="stroke-miterlimit: 10;" cx="395.663" cy="459.71" r="37.512" fill="none" fill-opacity="1" stroke="#f53855" stroke-opacity="1" data-original-stroke-color="#000000ff" stroke-width="30" data-original-stroke-width="30"/>
							<polyline style="stroke-miterlimit: 10;" points="416.151,282.515 416.151,365.799 &#10;&#9;&#9;&#9;&#9;&#9;&#9;&#9;&#9;496.739,365.799 &#9;&#9;&#9;&#9;&#9;&#9;&#9;" fill="none" fill-opacity="1" stroke="#f53855" stroke-opacity="1" data-original-stroke-color="#000000ff" stroke-width="30" data-original-stroke-width="30"/>
							
								<line style="stroke-miterlimit: 10;" x1="357.575" y1="296.526" x2="357.575" y2="369.198" fill="none" fill-opacity="1" stroke="#f53855" stroke-opacity="1" data-original-stroke-color="#000000ff" stroke-width="30" data-original-stroke-width="30"/>
							<path style="stroke-miterlimit: 10;" d="M445.599,457.787h51.141V304.131&#10;&#9;&#9;&#9;&#9;&#9;&#9;&#9;&#9;c-15.817-15.817-24.685-24.685-40.503-40.503" fill="none" fill-opacity="1" stroke="#f53855" stroke-opacity="1" data-original-stroke-color="#000000ff" stroke-width="30" data-original-stroke-width="30"/>
						</g>
					</g>
				</g>
				<g>
					<polyline style="stroke-miterlimit: 10;" points="357.575,293.816 357.575,457.787 &#10;&#9;&#9;&#9;&#9;&#9;&#9;213.251,457.787 &#9;&#9;&#9;&#9;&#9;" fill="none" fill-opacity="1" stroke="#f53855" stroke-opacity="1" data-original-stroke-color="#000000ff" stroke-width="30" data-original-stroke-width="30"/>
				</g>
				<polyline style="stroke-miterlimit: 10;" points="62.746,457.787 15,457.787 &#10;&#9;&#9;&#9;&#9;&#9;15,370.708 358.151,370.708 &#9;&#9;&#9;&#9;" fill="none" fill-opacity="1" stroke="#f53855" stroke-opacity="1" data-original-stroke-color="#000000ff" stroke-width="30" data-original-stroke-width="30"/>
			</g>
			<path style="stroke-miterlimit: 10;" d="M15,255.53v22.223&#10;&#9;&#9;&#9;&#9;c0,15.757,12.774,28.531,28.531,28.531h0c15.757,0,28.531-12.774,28.531-28.531V116.154" fill="none" fill-opacity="1" stroke="#f53855" stroke-opacity="1" data-original-stroke-color="#000000ff" stroke-width="30" data-original-stroke-width="30"/>
			<path style="stroke-miterlimit: 10;" d="M292.564,369.198L81.319,142.793&#10;&#9;&#9;&#9;&#9;c-13.224-14.155-12.283-36.401,2.09-49.388l0,0c14.201-12.832,36.114-11.728,48.953,2.467l88.986,98.804" fill="none" fill-opacity="1" stroke="#f53855" stroke-opacity="1" data-original-stroke-color="#000000ff" stroke-width="30" data-original-stroke-width="30"/>
		</g>
	</g>
</g></g></svg>