<svg enable-background="new 0 0 512 512" viewBox="0 0 512 512" xmlns="http://www.w3.org/2000/svg" xmlns:xlink="http://www.w3.org/1999/xlink" width="300" height="300" version="1.1" xmlns:svgjs="http://svgjs.dev/svgjs"><g width="100%" height="100%" transform="matrix(1,0,0,1,0,0)"><linearGradient id="SVGID_1_" gradientUnits="userSpaceOnUse" x1="256" x2="256" y1="479.716" y2="32.284"><stop offset="0" stop-color="#ff506a"/><stop offset="1" stop-color="#ffe28f"/></linearGradient><g id="_x34_4_Truck_Location"><path d="m161.684 189.39c29.597 0 53.67-24.043 53.67-53.587 0-29.552-24.073-53.595-53.67-53.595-29.5 0-53.505 24.043-53.505 53.595 0 29.544 24.005 53.587 53.505 53.587zm0-91.809c21.115 0 38.297 17.144 38.297 38.222 0 21.07-17.182 38.214-38.297 38.214-21.025 0-38.132-17.144-38.132-38.214 0-21.078 17.107-38.222 38.132-38.222zm336.726 241.369c-.023-.054-.05-.102-.074-.155-7.696-19.453-26.166-32.015-47.181-32.015-5.448 0-8.013-3.285-10.058-7.649l-39.558-82.922c-5.615-13.977-18.991-23.014-34.063-23.014h-95.097c-8.73 0-15.831 7.101-15.831 15.831v97.754h-86.857c29.123-35.903 95.534-124.771 95.534-170.97 0-57.085-46.411-103.526-103.459-103.526-57.085 0-103.526 46.441-103.526 103.526 0 46.248 66.224 134.95 95.571 170.97h-126.609c-9.465 0-17.167 7.694-17.167 17.159v98.234c0 9.465 7.701 17.167 17.167 17.167h21.481c3.697 22.855 23.506 40.376 47.389 40.376s43.698-17.521 47.396-40.376h225.072c3.697 22.855 23.506 40.376 47.389 40.376s43.692-17.521 47.389-40.376h21.489c9.465 0 17.159-7.701 17.159-17.167v-64.583c0-6.388-1.178-12.618-3.483-18.488-.022-.053-.053-.099-.073-.152zm-12.845 10.615c1.585 6.787.817 9.206 1.027 15.966h-17.49v-15.966zm-323.799-301.909c48.573 0 88.086 39.543 88.086 88.153 0 39.821-63.203 125.184-88.086 156.273-24.858-31.03-88.153-116.511-88.153-156.273 0-48.61 39.543-88.153 88.153-88.153zm-65.694 416.688c-17.997 0-32.641-14.628-32.682-32.615 0-.026.015-.049.015-.075s-.015-.049-.015-.075c.041-17.994 14.685-32.622 32.682-32.622 18.005 0 32.648 14.628 32.69 32.622 0 .026-.015.049-.015.075s.015.049.015.075c-.042 17.987-14.686 32.615-32.69 32.615zm319.856 0c-18.006 0-32.657-14.641-32.685-32.64 0-.018.01-.032.01-.05s-.01-.032-.01-.05c.027-18.007 14.679-32.647 32.685-32.647s32.657 14.641 32.685 32.647c0 .018-.01.033-.01.05s.01.032.01.05c-.027 17.999-14.679 32.64-32.685 32.64zm68.878-40.377h-21.489c-3.697-22.856-23.506-40.384-47.389-40.384s-43.692 17.528-47.389 40.384h-225.071c-3.698-22.856-23.513-40.384-47.396-40.384s-43.692 17.528-47.389 40.384h-21.481c-.991 0-1.794-.803-1.794-1.794v-98.234c0-.983.803-1.786 1.794-1.786h237.032c4.249 0 7.686-3.438 7.686-7.686l.458-105.898h95.097c8.76 0 16.536 5.247 19.997 13.819l39.595 83.034c3.761 10.028 13.384 16.731 24.088 16.731 10.479 0 19.999 4.529 26.57 12.04h-9.973c-7.731 0-14.022 6.29-14.022 14.022v18.593c0 7.776 6.29 14.097 14.022 14.097h18.841v41.269c-.001.99-.804 1.793-1.787 1.793zm-109.299-197.256c-1.314-3.318-4.466-5.457-8.032-5.457h-75.19c-4.249 0-7.686 3.438-7.686 7.686v81.353c0 4.249 3.438 7.686 7.686 7.686h114.816c5.631 0 9.383-5.892 6.928-11.012zm-75.535 75.895v-65.98h63.263l31.654 65.98z" fill="#f53855" data-original-color="SVGID_1_" stroke="none" stroke-opacity="1" fill-opacity="1"/></g><g id="Layer_1"/></g></svg>