<svg id="Layer_1" enable-background="new 0 0 50 50" height="300" viewBox="0 0 50 50" width="300" xmlns="http://www.w3.org/2000/svg" version="1.1" xmlns:xlink="http://www.w3.org/1999/xlink" xmlns:svgjs="http://svgjs.dev/svgjs"><g width="100%" height="100%" transform="matrix(1,0,0,1,0,0)"><g id="_x37_"><path d="m8.4 27.1h7.6c.6 0 1-.4 1-1v-6.2c0-.6-.4-1-1-1h-4.5c-.4 0-.7.2-.9.6l-3.1 6.2c-.2.3-.1.7 0 1 .2.2.5.4.9.4zm3.7-6.3h2.9v4.2h-5z" fill="#f53855" fill-opacity="1" data-original-color="#000000ff" stroke="none" stroke-opacity="1"/><path d="m15.6 29.1c-.6 0-1 .4-1 1s.4 1 1 1h.9c.6 0 1-.4 1-1s-.4-1-1-1z" fill="#f53855" fill-opacity="1" data-original-color="#000000ff" stroke="none" stroke-opacity="1"/><path d="m35.5 31c.6 0 1-.4 1-1s-.5-1-1-1-1 .4-1 1 .5 1 1 1z" fill="#f53855" fill-opacity="1" data-original-color="#000000ff" stroke="none" stroke-opacity="1"/><path d="m45.6 36.4h-1c.1-.3.2-.5.3-.8h1.4c1.5 0 2.7-1.2 2.7-2.7v-3c0-1.3-.9-2.4-2.1-2.7l-2-.4c-.3-.1-.5-.3-.5-.5l-1.1-4.1c-.3-1.2-1.4-2-2.6-2h-6.9c-1 0-1.9.5-2.4 1.4l-2.8 4.9c-.1.2-.2.3-.4.3l-4.4 1.3c-1.2.3-1.9 1.4-1.9 2.6v2.2c0 1.5 1.2 2.7 2.7 2.7h1.4c.1.3.2.6.3.8h-5.4v-16.1l18.7-13.6c.5.5 1.1.9 1.9 1v2.3c0 1.6.7 3 1.8 3.8.4.3.6.8.5 1.4-.1.4-.5.8-.9.9-.6.1-.9-.1-1.1-.2-.3-.2-.5-.6-.5-1 0-.6-.4-1-1-1s-1 .4-1 1c0 2.1 2 3.7 4.1 3.2 1.1-.3 2-1.2 2.3-2.3.3-1.3-.1-2.7-1.2-3.5-.6-.5-1-1.3-1-2.2v-2.9c.8-.5 1.3-1.5 1.3-2.5 0-1.7-1.3-3-3-3s-3 1.3-3 3v.1l-18.1 13.1c-.5-1.7-2-2.9-3.8-2.9h-6c-1.5 0-2.9.8-3.5 2.2l-3.5 7.1c-.3.5-.4 1.2-.4 1.8v10.5c-1.5.4-2.5 1.7-2.5 3.3v1.9c0 1.9 1.5 3.4 3.4 3.4h3c.4 1.8 2.1 3.1 4 3.1s3.5-1.3 4-3.1h11.1c.4 1.8 2.1 3.1 4 3.1s3.5-1.3 4-3.1h2.1c.4 1.8 2.1 3.1 4 3.1s3.5-1.3 4-3.1h1.1c1.9 0 3.4-1.5 3.4-3.4v-1.9c-.1-1.9-1.6-3.5-3.5-3.5zm-3.8-32.7c.6 0 1 .4 1 1 0 .5-.5 1-1 1s-1-.4-1-1c0-.5.5-1 1-1zm-8.6 31.9h4.3c.1.3.2.6.3.8h-5c.2-.2.3-.5.4-.8zm6.2-1c0-.9.8-1.8 1.8-1.8s1.8.8 1.8 1.8c0 1-.8 1.8-1.8 1.8s-1.8-.8-1.8-1.8zm1.8-11.9.9 3.3h-4.7v-3.8h3.1c.4-.1.7.2.7.5zm-8.2-.2c.1-.2.4-.4.6-.4h1.8v3.9h-4.4zm-9.3 10.4v-2.2c0-.3.2-.6.5-.7l4.4-1.3c.5-.1.9-.4 1.2-.8h13.2c.4.4.8.7 1.4.8l2 .4c.3.1.6.4.6.7v3c0 .4-.3.7-.7.7h-1.4c-.4-1.6-1.9-2.8-3.7-2.8-1.7 0-3.2 1.2-3.7 2.8h-4.3c-.4-1.6-1.9-2.8-3.6-2.8-1.7 0-3.2 1.2-3.7 2.8h-1.4c-.4.1-.8-.2-.8-.6zm4 1.7c0-1 .9-1.8 1.8-1.8 1 0 1.8.8 1.8 1.8 0 1-.8 1.8-1.8 1.8-.9 0-1.8-.8-1.8-1.8zm-22.1-9.4 3.5-7.1c.3-.7 1-1.1 1.8-1.1h6c1.1 0 2 .9 2 2v17.5h-13.5v-1.2h1.7c1.2 0 2.2-1 2.2-2.2v-2.1c0-1.2-1-2.2-2.2-2.2h-1.7v-2.7c0-.3.1-.6.2-.9zm-.2 8.1v-2.5h1.7c.1 0 .2.1.2.2v2c0 .1-.1.2-.2.2h-1.7zm6 13c-1.2 0-2.1-.9-2.1-2.1s.9-2.1 2.1-2.1 2.1.9 2.1 2.1-.9 2.1-2.1 2.1zm19.1 0c-1.2 0-2.1-.9-2.1-2.1 0-1.2.9-2.1 2.1-2.1s2.1.9 2.1 2.1c0 1.1-1 2.1-2.1 2.1zm10 0c-1.2 0-2.1-.9-2.1-2.1 0-1.2.9-2.1 2.1-2.1s2.1.9 2.1 2.1c0 1.1-.9 2.1-2.1 2.1zm6.5-4.6c0 .8-.6 1.4-1.4 1.4h-1c-.5-1.8-2.2-3.1-4-3.1s0 0 0 0c-1.9 0-3.5 1.4-4 3.1h-2.1c0-.2-.1-.4-.2-.5-.6-1.6-2.2-2.6-3.8-2.6-1.9 0-3.5 1.3-4 3.1h-11.1c-.5-2-2.5-3.5-4.8-3-.1 0-.2 0-.2.1-1.5.4-2.6 1.6-3 3h-3c-.8 0-1.4-.6-1.4-1.4v-1.9c0-.8.6-1.4 1.4-1.4h41.1c.8 0 1.4.6 1.4 1.4v1.8z" fill="#f53855" fill-opacity="1" data-original-color="#000000ff" stroke="none" stroke-opacity="1"/></g></g></svg>