<svg id="Layer_2" viewBox="0 0 64 64" xmlns="http://www.w3.org/2000/svg" data-name="Layer 2" width="300" height="300" version="1.1" xmlns:xlink="http://www.w3.org/1999/xlink" xmlns:svgjs="http://svgjs.dev/svgjs"><g width="100%" height="100%" transform="matrix(1,0,0,1,0,0)"><path d="m44.95 28.95h-10.58l2.16-3.83c1.27-.25 2.2-1.35 2.2-2.67s-.89-2.35-2.08-2.64l-1.34-2.91h5.09c.27 0 .49-.22.49-.49v-4.09c0-.27-.22-.49-.49-.49h-16.15c-.27 0-.49.22-.49.49v4.09c0 .27.22.49.49.49h7.44l1.94 4.19c-.24.42-.37.88-.37 1.37 0 .44.11.87.31 1.26l-2.96 5.24h-11.55c-1.46 0-2.74 1.03-3.05 2.45-1.34 6.08-1.34 12.24 0 18.32.31 1.42 1.6 2.45 3.05 2.45h25.9c1.46 0 2.74-1.03 3.05-2.45 1.34-6.08 1.34-12.24 0-18.32-.31-1.42-1.6-2.45-3.05-2.45zm-7.2-6.5c0 .91-.68 1.65-1.61 1.75-.62.05-1.24-.23-1.6-.76-.2-.3-.3-.64-.3-.99 0-.38.12-.74.34-1.04.09-.12.19-.22.3-.31.1-.08.2-.15.31-.21h.02c.12-.06.25-.11.38-.14.11-.03.22-.03.33-.04h.27.05c.86.12 1.51.86 1.51 1.73zm-13.01-9.64h15.16v3.1h-15.16zm9.48 4.09 1.31 2.85c-.44.07-.85.25-1.2.53l-1.56-3.37h1.45zm0 7.65c.08.06.16.11.25.16.09.06.18.13.28.18s.2.08.3.11c.11.04.21.09.32.11.01 0 .02.01.04.01l-2.16 3.82h-1.51l2.49-4.4zm12.82 24.97c-.21.97-1.09 1.68-2.09 1.68h-25.9c-1 0-1.88-.71-2.09-1.68-1.31-5.94-1.31-11.96 0-17.9.21-.97 1.09-1.68 2.09-1.68h25.9c1 0 1.88.71 2.09 1.68 1.31 5.94 1.31 11.96 0 17.9z" fill="#f53855" fill-opacity="1" data-original-color="#000000ff" stroke="none" stroke-opacity="1"/><path d="m44.41 31.58h-24.83c-.55 0-1.02.39-1.13.92-.85 4.15-1.04 8.39-.56 12.58.07.58.56 1.02 1.15 1.02h25.91c.59 0 1.08-.44 1.15-1.02.48-4.2.29-8.43-.56-12.58-.11-.53-.59-.92-1.13-.92zm-25.54 13.39c-.47-4.09-.29-8.22.54-12.27.02-.08.09-.13.17-.13h6v12.55h-6.55c-.09 0-.16-.06-.17-.15zm7.7-12.41h10.85v12.55h-10.85zm18.55 12.41c0 .08-.08.15-.17.15h-6.55v-12.55h6c.08 0 .15.06.17.13.83 4.05 1.01 8.18.54 12.27z" fill="#f53855" fill-opacity="1" data-original-color="#000000ff" stroke="none" stroke-opacity="1"/><path d="m32 1c-17.09 0-31 13.91-31 31s13.91 31 31 31 31-13.91 31-31-13.91-31-31-31zm0 61.02c-16.55 0-30.02-13.47-30.02-30.02s13.47-30.02 30.02-30.02 30.02 13.47 30.02 30.02-13.47 30.02-30.02 30.02z" fill="#f53855" fill-opacity="1" data-original-color="#000000ff" stroke="none" stroke-opacity="1"/></g></svg>