<svg width="59" height="40" viewBox="0 0 59 40" fill="none" xmlns="http://www.w3.org/2000/svg"><path class="forwhite" d="M41.2933 10.6052H46.7294C47.0479 10.6052 47.3436 10.7763 47.4914 11.0616L50.4255 16.7657H40.2812V11.381C40.2812 10.9132 40.8157 10.6052 41.2933 10.6052ZM14.2151 35.9088C12.1112 35.9088 10.4053 34.1975 10.4053 32.087C10.4053 29.9765 12.1112 28.2652 14.2151 28.2652C16.319 28.2652 18.0249 29.9765 18.0249 32.087C18.0249 34.1861 16.319 35.9088 14.2151 35.9088ZM14.2151 26.5882C11.6904 26.5882 9.54094 28.174 8.83584 30.5697H6.33386C5.85621 30.5697 5.36719 30.0107 5.36719 29.543V23.5764C5.36719 23.0973 5.85621 22.8235 6.33386 22.8235H38.4615V30.5811H19.5943C18.8779 28.174 16.7398 26.5882 14.2151 26.5882ZM47.7416 35.9088C45.6377 35.9088 43.9318 34.1975 43.9318 32.087C43.9318 29.9765 45.6377 28.2652 47.7416 28.2652C49.8455 28.2652 51.5514 29.9765 51.5514 32.087C51.5514 34.1861 49.8455 35.9088 47.7416 35.9088ZM55.7479 29.543C55.7479 30.0221 55.5318 30.5697 55.0542 30.5697H53.1208C52.4044 28.174 50.2663 26.5882 47.7416 26.5882C45.2169 26.5882 43.0788 28.174 42.3623 30.5697H40.2812V18.591H51.7334L55.3158 20.1311C55.6342 20.268 55.7479 20.5418 55.7479 20.8955V29.543Z" fill="#777464"></path><path d="M36.5284 19.96H2.97915C2.47875 19.96 2.06934 19.5493 2.06934 19.0473C2.06934 18.5454 2.47875 18.1347 2.97915 18.1347H35.5049V14.1418C35.5049 13.6398 35.9143 13.2291 36.4147 13.2291C36.9151 13.2291 37.3245 13.6398 37.3245 14.1418V18.9333C37.3245 19.4352 37.0288 19.96 36.5284 19.96Z" fill="#FFBF1B"></path><path d="M32.3209 11.9856C32.3209 12.7728 31.7522 13.5713 30.9789 13.5713H30.8311C30.4785 11.3581 28.3973 9.84084 26.191 10.1945C24.4624 10.4683 23.109 11.8373 22.8247 13.5713H12.9988C12.6462 11.3581 10.565 9.84084 8.35874 10.1945C6.63011 10.4683 5.27676 11.8373 4.99245 13.5713H4.45793C3.67322 13.5713 2.97949 12.7728 2.97949 11.9856V9.73816C2.99086 9.17916 3.33204 8.67719 3.84381 8.44903L6.76658 7.12567C6.92579 7.05722 7.07364 6.93173 7.16462 6.78342L9.6666 2.82475C10.076 2.18588 10.7811 1.82082 11.5317 1.83223H20.5161C21.1984 1.82082 21.8353 2.11743 22.2561 2.65362L25.4745 6.87469C25.5996 7.0344 25.7702 7.13708 25.9636 7.19412L31.3087 8.66578C31.9115 8.83691 32.3322 9.39592 32.3209 10.0348V11.9856Z" fill="#FFBF1B"></path><path class="forwhite" d="M24.5986 14.0505C24.5986 15.2826 25.5994 16.2865 26.8277 16.2865C28.0559 16.2865 29.0567 15.2826 29.0567 14.0505C29.0567 12.8184 28.0559 11.8145 26.8277 11.8145C25.5994 11.8145 24.5986 12.8184 24.5986 14.0505Z" fill="#777464"></path><path class="forwhite" d="M6.7666 14.0505C6.7666 15.2826 7.76739 16.2865 8.99564 16.2865C10.2239 16.2865 11.2247 15.2826 11.2247 14.0505C11.2247 12.8184 10.2239 11.8145 8.99564 11.8145C7.76739 11.8145 6.7666 12.8184 6.7666 14.0505Z" fill="#777464"></path></svg>